<svg xmlns="http://www.w3.org/2000/svg" viewBox="0 0 120 140" fill="none">
  <circle cx="60" cy="85" r="35" fill="#FFF9C4"/>
  <circle cx="60" cy="55" r="25" fill="#FFF9C4"/>
  <circle cx="50" cy="50" r="4" fill="#3E2723"/>
  <circle cx="70" cy="50" r="4" fill="#3E2723"/>
  <circle cx="51" cy="48" r="1.5" fill="white"/>
  <circle cx="71" cy="48" r="1.5" fill="white"/>
  <polygon points="57,58 63,58 60,65" fill="#FF8F00"/>
  <circle cx="60" cy="30" r="5" fill="#EC407A"/>
  <ellipse cx="52" cy="33" rx="3" ry="2" fill="#EC407A" transform="rotate(-15 52 33)"/>
  <ellipse cx="68" cy="33" rx="3" ry="2" fill="#EC407A" transform="rotate(15 68 33)"/>
  <ellipse cx="30" cy="85" rx="12" ry="6" fill="#FFF9C4" transform="rotate(-20 30 85)"/>
  <ellipse cx="90" cy="85" rx="12" ry="6" fill="#FFF9C4" transform="rotate(20 90 85)"/>
  <ellipse cx="48" cy="115" rx="8" ry="4" fill="#FF8F00"/>
  <ellipse cx="72" cy="115" rx="8" ry="4" fill="#FF8F00"/>
</svg>
