<svg xmlns="http://www.w3.org/2000/svg" viewBox="0 0 120 140" fill="none">
  <circle cx="60" cy="35" r="22" fill="#FFECB3"/>
  <path d="M38 25 Q42 15 50 22" fill="#5D4037"/>
  <path d="M70 22 Q78 15 82 25" fill="#5D4037"/>
  <path d="M42 28 Q60 18 78 28" fill="#5D4037"/>
  <circle cx="75" cy="20" r="4" fill="#EC407A"/>
  <circle cx="52" cy="33" r="3" fill="#3E2723"/>
  <circle cx="68" cy="33" r="3" fill="#3E2723"/>
  <path d="M55 42 Q60 47 65 42" fill="none" stroke="#3E2723" stroke-width="2" stroke-linecap="round"/>
  <rect x="46" y="55" width="28" height="35" rx="8" fill="#EC407A"/>
  <line x1="46" y1="70" x2="20" y2="55" stroke="#FFECB3" stroke-width="6" stroke-linecap="round"/>
  <line x1="74" y1="70" x2="100" y2="55" stroke="#FFECB3" stroke-width="6" stroke-linecap="round"/>
  <line x1="52" y1="90" x2="45" y2="120" stroke="#FFECB3" stroke-width="6" stroke-linecap="round"/>
  <line x1="68" y1="90" x2="75" y2="120" stroke="#FFECB3" stroke-width="6" stroke-linecap="round"/>
  <circle cx="45" cy="122" r="5" fill="#EC407A"/>
  <circle cx="75" cy="122" r="5" fill="#EC407A"/>
</svg>
